<svg width="26" height="26" viewBox="0 0 26 26" fill="none" xmlns="http://www.w3.org/2000/svg">
<circle cx="14" cy="13" r="11.5" stroke="#707070"/>
<path d="M17.5521 9.97745C17.6033 9.92523 17.6644 9.88374 17.7318 9.85541C17.7992 9.82709 17.8716 9.8125 17.9447 9.8125C18.0179 9.8125 18.0902 9.82709 18.1577 9.85541C18.2251 9.88374 18.2862 9.92523 18.3374 9.97745C18.5519 10.1942 18.5549 10.5445 18.3449 10.765L13.9101 16.0075C13.8598 16.0627 13.7987 16.1072 13.7305 16.138C13.6624 16.1689 13.5887 16.1856 13.514 16.187C13.4392 16.1884 13.3649 16.1745 13.2957 16.1462C13.2265 16.1179 13.1637 16.0758 13.1114 16.0225L10.4129 13.288C10.3088 13.1818 10.2505 13.0391 10.2505 12.8905C10.2505 12.7418 10.3088 12.5991 10.4129 12.493C10.464 12.4407 10.5251 12.3992 10.5925 12.3709C10.66 12.3426 10.7324 12.328 10.8055 12.328C10.8786 12.328 10.951 12.3426 11.0184 12.3709C11.0858 12.3992 11.1469 12.4407 11.1981 12.493L13.4871 14.8127L17.5371 9.99395C17.5418 9.98815 17.5468 9.98264 17.5521 9.97745Z" fill="#707070"/>
</svg>
