<svg width="18" height="18" viewBox="0 0 18 18" fill="none" xmlns="http://www.w3.org/2000/svg">
<path d="M4.5 0.5625C4.5 0.413316 4.44074 0.270242 4.33525 0.164752C4.22976 0.0592632 4.08668 0 3.9375 0C3.78832 0 3.64524 0.0592632 3.53975 0.164752C3.43426 0.270242 3.375 0.413316 3.375 0.5625V1.125H2.25C1.65326 1.125 1.08097 1.36205 0.65901 1.78401C0.237053 2.20597 0 2.77826 0 3.375L0 15.75C0 16.3467 0.237053 16.919 0.65901 17.341C1.08097 17.7629 1.65326 18 2.25 18H15.75C16.3467 18 16.919 17.7629 17.341 17.341C17.7629 16.919 18 16.3467 18 15.75V3.375C18 2.77826 17.7629 2.20597 17.341 1.78401C16.919 1.36205 16.3467 1.125 15.75 1.125H14.625V0.5625C14.625 0.413316 14.5657 0.270242 14.4602 0.164752C14.3548 0.0592632 14.2117 0 14.0625 0C13.9133 0 13.7702 0.0592632 13.6648 0.164752C13.5593 0.270242 13.5 0.413316 13.5 0.5625V1.125H4.5V0.5625ZM2.86313 3.375H15.1369C15.4744 3.375 15.75 3.627 15.75 3.9375V5.0625C15.75 5.373 15.4755 5.625 15.1358 5.625H2.86313C2.52562 5.625 2.25 5.373 2.25 5.0625V3.9375C2.25 3.627 2.5245 3.375 2.86313 3.375Z" fill="#707070"/>
</svg>
