<svg width="37" height="38" viewBox="0 0 37 38" fill="none" xmlns="http://www.w3.org/2000/svg">
<path d="M0.716 18.696C0.716 15.0907 1.496 11.884 3.056 9.076C4.616 6.23333 6.78267 4.032 9.556 2.472C12.364 0.877331 15.536 0.079998 19.072 0.079998C23.4053 0.079998 27.1147 1.224 30.2 3.512C33.2853 5.8 35.348 8.92 36.388 12.872H26.612C25.884 11.3467 24.844 10.1853 23.492 9.388C22.1747 8.59067 20.6667 8.192 18.968 8.192C16.2293 8.192 14.0107 9.14533 12.312 11.052C10.6133 12.9587 9.764 15.5067 9.764 18.696C9.764 21.8853 10.6133 24.4333 12.312 26.34C14.0107 28.2467 16.2293 29.2 18.968 29.2C20.6667 29.2 22.1747 28.8013 23.492 28.004C24.844 27.2067 25.884 26.0453 26.612 24.52H36.388C35.348 28.472 33.2853 31.592 30.2 33.88C27.1147 36.1333 23.4053 37.26 19.072 37.26C15.536 37.26 12.364 36.48 9.556 34.92C6.78267 33.3253 4.616 31.124 3.056 28.316C1.496 25.508 0.716 22.3013 0.716 18.696Z" fill="#FFD60A"/>
</svg>
