<svg width="24" height="18" viewBox="0 0 24 18" fill="none" xmlns="http://www.w3.org/2000/svg">
<path d="M18 1.5H6C5.60218 1.5 5.22064 1.65804 4.93934 1.93934C4.65804 2.22064 4.5 2.60218 4.5 3V6.75H3V3C3 2.20435 3.31607 1.44129 3.87868 0.87868C4.44129 0.31607 5.20435 0 6 0H18C18.7957 0 19.5587 0.31607 20.1213 0.87868C20.6839 1.44129 21 2.20435 21 3V6.75H19.5V3C19.5 2.60218 19.342 2.22064 19.0607 1.93934C18.7794 1.65804 18.3978 1.5 18 1.5ZM3 11.25H4.5V15C4.5 15.3978 4.65804 15.7794 4.93934 16.0607C5.22064 16.342 5.60218 16.5 6 16.5H18C18.3978 16.5 18.7794 16.342 19.0607 16.0607C19.342 15.7794 19.5 15.3978 19.5 15V11.25H21V15C21 15.7956 20.6839 16.5587 20.1213 17.1213C19.5587 17.6839 18.7957 18 18 18H6C5.20435 18 4.44129 17.6839 3.87868 17.1213C3.31607 16.5587 3 15.7956 3 15V11.25ZM0.75 8.25C0.551088 8.25 0.360322 8.32902 0.21967 8.46967C0.0790176 8.61032 0 8.80109 0 9C0 9.19891 0.0790176 9.38968 0.21967 9.53033C0.360322 9.67098 0.551088 9.75 0.75 9.75H23.25C23.4489 9.75 23.6397 9.67098 23.7803 9.53033C23.921 9.38968 24 9.19891 24 9C24 8.80109 23.921 8.61032 23.7803 8.46967C23.6397 8.32902 23.4489 8.25 23.25 8.25H0.75Z" fill="#FFD60A"/>
</svg>
