<svg width="10" height="6" viewBox="0 0 10 6" fill="none" xmlns="http://www.w3.org/2000/svg">
<path fill-rule="evenodd" clip-rule="evenodd" d="M1.0287 0.90382C1.05773 0.874718 1.09221 0.851629 1.13018 0.835875C1.16814 0.820121 1.20884 0.812012 1.24995 0.812012C1.29105 0.812012 1.33175 0.820121 1.36972 0.835875C1.40769 0.851629 1.44217 0.874718 1.4712 0.90382L4.99995 4.4332L8.5287 0.90382C8.55775 0.874765 8.59225 0.851717 8.63021 0.835993C8.66817 0.820269 8.70886 0.812175 8.74995 0.812175C8.79104 0.812175 8.83173 0.820269 8.86969 0.835993C8.90765 0.851717 8.94214 0.874765 8.9712 0.90382C9.00025 0.932875 9.0233 0.967368 9.03903 1.00533C9.05475 1.04329 9.06284 1.08398 9.06284 1.12507C9.06284 1.16616 9.05475 1.20685 9.03903 1.24481C9.0233 1.28277 9.00025 1.31727 8.9712 1.34632L5.2212 5.09632C5.19217 5.12542 5.15768 5.14851 5.11972 5.16427C5.08175 5.18002 5.04105 5.18813 4.99995 5.18813C4.95884 5.18813 4.91814 5.18002 4.88018 5.16427C4.84221 5.14851 4.80773 5.12542 4.7787 5.09632L1.0287 1.34632C0.999596 1.31729 0.976507 1.28281 0.960753 1.24484C0.944999 1.20688 0.93689 1.16617 0.93689 1.12507C0.93689 1.08397 0.944999 1.04326 0.960753 1.0053C0.976507 0.967333 0.999596 0.932849 1.0287 0.90382Z" fill="#F2F2F2"/>
</svg>
