<svg width="29" height="20" viewBox="0 0 29 20" fill="none" xmlns="http://www.w3.org/2000/svg">
<path fill-rule="evenodd" clip-rule="evenodd" d="M29 10C29 9.73483 28.8946 9.48047 28.7071 9.29294C28.5195 9.1054 28.2652 9.00004 28 9.00004H4.41396L10.708 2.70804C10.8009 2.61507 10.8747 2.50469 10.925 2.38321C10.9753 2.26173 11.0012 2.13153 11.0012 2.00004C11.0012 1.86855 10.9753 1.73835 10.925 1.61688C10.8747 1.4954 10.8009 1.38502 10.708 1.29204C10.615 1.19907 10.5046 1.12531 10.3831 1.075C10.2616 1.02468 10.1314 0.998779 9.99996 0.998779C9.86847 0.998779 9.73827 1.02468 9.61679 1.075C9.49531 1.12531 9.38493 1.19907 9.29196 1.29204L1.29196 9.29204C1.19883 9.38493 1.12494 9.49529 1.07453 9.61678C1.02412 9.73827 0.998169 9.86851 0.998169 10C0.998169 10.1316 1.02412 10.2618 1.07453 10.3833C1.12494 10.5048 1.19883 10.6152 1.29196 10.708L9.29196 18.708C9.38493 18.801 9.49531 18.8748 9.61679 18.9251C9.73827 18.9754 9.86847 19.0013 9.99996 19.0013C10.1314 19.0013 10.2616 18.9754 10.3831 18.9251C10.5046 18.8748 10.615 18.801 10.708 18.708C10.8009 18.6151 10.8747 18.5047 10.925 18.3832C10.9753 18.2617 11.0012 18.1315 11.0012 18C11.0012 17.8686 10.9753 17.7384 10.925 17.6169C10.8747 17.4954 10.8009 17.385 10.708 17.292L4.41396 11H28C28.2652 11 28.5195 10.8947 28.7071 10.7071C28.8946 10.5196 29 10.2653 29 10Z" fill="#F2F2F2"/>
</svg>
