<svg width="24" height="18" viewBox="0 0 24 18" fill="none" xmlns="http://www.w3.org/2000/svg">
<path d="M16.185 16.368L13.764 13.9455C12.8278 14.2802 11.8157 14.3422 10.8456 14.1243C9.87554 13.9063 8.98729 13.4173 8.28423 12.7143C7.58117 12.0112 7.09221 11.123 6.87424 10.1529C6.65628 9.18278 6.71827 8.17074 7.053 7.2345L3.963 4.1445C1.407 6.417 0 9 0 9C0 9 4.5 17.25 12 17.25C13.4406 17.245 14.8649 16.9448 16.185 16.368ZM7.815 1.632C9.13508 1.05514 10.5594 0.754961 12 0.75C19.5 0.75 24 9 24 9C24 9 22.5915 11.5815 20.0385 13.857L16.9455 10.764C17.2802 9.82776 17.3422 8.81572 17.1243 7.84563C16.9063 6.87554 16.4173 5.98729 15.7143 5.28423C15.0112 4.58117 14.123 4.09221 13.1529 3.87424C12.1828 3.65628 11.1707 3.71827 10.2345 4.053L7.815 1.6335V1.632Z" fill="#707070"/>
</svg>
